<svg width="15" height="15" viewBox="0 0 15 15"  xmlns="http://www.w3.org/2000/svg">
<path d="M10.8985 8.87351H10.2662L10.0421 8.65739C10.8265 7.74487 11.2988 6.56019 11.2988 5.27145C11.2988 2.39781 8.96944 0.0684814 6.0958 0.0684814C3.22215 0.0684814 0.892822 2.39781 0.892822 5.27145C0.892822 8.1451 3.22215 10.4744 6.0958 10.4744C7.38453 10.4744 8.56921 10.0022 9.48173 9.21771L9.69785 9.44184V10.0742L13.7001 14.0685L14.8928 12.8758L10.8985 8.87351ZM6.0958 8.87351C4.10266 8.87351 2.49374 7.26459 2.49374 5.27145C2.49374 3.27832 4.10266 1.6694 6.0958 1.6694C8.08893 1.6694 9.69785 3.27832 9.69785 5.27145C9.69785 7.26459 8.08893 8.87351 6.0958 8.87351Z" />
</svg>
